<svg width="43" height="43" viewBox="0 0 43 43" fill="none" xmlns="http://www.w3.org/2000/svg">
<path d="M21.5 1.56055V4.56055H3V31.5605H40V15.0605H43V33.0605C43 33.889 42.3284 34.5605 41.5 34.5605H1.5C0.671573 34.5605 0 33.889 0 33.0605V3.06055C0 2.23212 0.671573 1.56055 1.5 1.56055H21.5Z" fill="white"/>
<path d="M42.5605 2.12109L29.5 15.1816L24.4395 10.1211L26.5605 8L29.5 10.9395L40.4395 0L42.5605 2.12109Z" fill="white"/>
<path d="M24.5 25.5605V28.5605H18.5V25.5605H24.5Z" fill="white"/>
<path d="M23 33.0626V39.5606H29.5V42.5606H13.5V39.5606H20V33.0626H23Z" fill="white"/>
</svg>
