<svg width="35" height="29" viewBox="0 0 35 29" fill="none" xmlns="http://www.w3.org/2000/svg">
<g clip-path="url(#clip0_4102_1255)">
<path d="M34.9154 12.4221C34.1796 6.22886 29.3033 2.07142 23.3201 0.635431C21.4133 0.196503 19.4615 -0.0163842 17.505 0.00116684C15.5485 -0.0157481 13.5969 0.197726 11.6904 0.637182C5.70717 2.07201 0.830273 6.22886 0.095063 12.4221C0.0238473 13.0345 -0.00792176 13.6507 -4.74667e-05 14.2672C-0.00791854 14.8836 0.0238505 15.4998 0.095063 16.1122C0.830273 22.3055 5.70717 26.4629 11.6904 27.8983C13.5969 28.3379 15.5485 28.5514 17.505 28.5343C19.4614 28.5514 21.413 28.338 23.3195 27.8983C29.3027 26.4629 34.1796 22.3055 34.9148 16.1116C34.986 15.4995 35.0178 14.8834 35.0099 14.2672C35.0178 13.6507 34.9866 13.0345 34.9154 12.4221ZM4.95387 7.10703C4.96437 7.08777 4.97954 7.06035 4.99179 7.04284C6.50889 4.78003 9.40305 2.90641 12.6141 2.08893C14.2143 1.69617 15.8573 1.50447 17.505 1.51827C19.1523 1.50356 20.7951 1.69428 22.3953 2.08601C25.6045 2.90291 28.501 4.77711 30.0175 7.03993C30.0292 7.05802 30.0449 7.08486 30.0555 7.10411C30.0583 7.10825 30.0602 7.11295 30.061 7.1179C30.0619 7.12285 30.0616 7.12792 30.0603 7.13275C30.0589 7.13759 30.0565 7.14207 30.0533 7.14589C30.0501 7.14972 30.046 7.15278 30.0414 7.15488C30.0263 7.16421 30.0029 7.17647 29.986 7.18463C29.5145 7.41804 28.644 7.85041 28.0237 8.15675C24.2555 10.0204 21.5976 11.373 21.0217 11.8836C20.3058 12.5207 19.2484 14.1096 17.505 16.7114C15.7609 14.1096 14.7042 12.5207 13.9876 11.8871C13.4117 11.3759 10.7539 10.0239 6.98561 8.16025C6.36594 7.85391 5.49477 7.4227 5.0233 7.18814C5.00638 7.17997 4.98363 7.16713 4.96787 7.15838C4.96331 7.15628 4.95927 7.15322 4.95602 7.14939C4.95277 7.14557 4.9504 7.14109 4.94906 7.13625C4.94773 7.13142 4.94747 7.12635 4.9483 7.1214C4.94913 7.11645 4.95103 7.11117 4.95387 7.10703ZM32.1508 15.9155C31.5317 21.4489 27.428 25.1634 22.3935 26.4454C20.794 26.8374 19.1518 27.0283 17.505 27.0137C15.8574 27.0287 14.2144 26.838 12.6141 26.446C7.5802 25.1634 3.47645 21.4489 2.8591 15.9155C2.79922 15.3682 2.77252 14.8177 2.77916 14.2672C2.77136 13.7604 2.7965 13.2536 2.85443 12.7501C2.92852 12.0532 3.08522 11.3676 3.32123 10.7078C3.32649 10.6956 3.33524 10.678 3.34166 10.667C3.34594 10.6585 3.35315 10.6519 3.36195 10.6483C3.37076 10.6448 3.38055 10.6446 3.3895 10.6477C3.40468 10.6524 3.42626 10.6605 3.44144 10.667C3.84989 10.8356 4.52208 11.1139 5.55079 11.5609C10.3057 13.6271 13.1188 14.9895 13.8032 15.5579C14.3867 16.0416 15.7941 18.0132 17.2681 20.0724H17.7483C19.2222 18.0132 20.6302 16.0416 21.2131 15.5579C21.897 14.9901 24.71 13.6271 29.4655 11.5609C30.4942 11.1139 31.1641 10.8356 31.5749 10.667C31.5901 10.6605 31.6116 10.6524 31.6268 10.6477C31.6358 10.6446 31.6456 10.6448 31.6544 10.6483C31.6632 10.6519 31.6704 10.6585 31.6747 10.667C31.6811 10.678 31.6898 10.6956 31.6951 10.7078C31.9311 11.3676 32.0878 12.0532 32.1619 12.7501C32.2198 13.2536 32.245 13.7604 32.2372 14.2672C32.2438 14.8177 32.2171 15.3682 32.1572 15.9155" fill="white"/>
</g>
<defs>
<clipPath id="clip0_4102_1255">
<rect width="35.01" height="28.5332" fill="white"/>
</clipPath>
</defs>
</svg>
