<svg width="48" height="48" viewBox="0 0 48 48" fill="none" xmlns="http://www.w3.org/2000/svg">
<path d="M15.5254 32.5767C15.8739 32.4605 16.2541 32.4769 16.5918 32.6216L22.5918 35.1919C23.3529 35.5185 23.7052 36.4014 23.3789 37.1626C23.0525 37.9239 22.1696 38.276 21.4082 37.9498L15.9297 35.6021L7.10742 38.5455C4.84114 39.3007 2.5 37.614 2.5 35.2251V11.2369C2.5 9.91116 3.24978 8.69887 4.43555 8.106L14.5 3.0728C15.4207 2.61262 16.4973 2.58141 17.4434 2.98686L30.3086 8.50053H42C43.933 8.50053 45.5 10.0676 45.5 12.0005V20.0005C45.4997 20.8287 44.8282 21.5005 44 21.5005C43.1718 21.5005 42.5003 20.8287 42.5 20.0005V12.0005C42.5 11.7244 42.2762 11.5005 42 11.5005H30C29.7969 11.5005 29.5949 11.4595 29.4082 11.3794L16.2617 5.74467C16.1267 5.6868 15.9732 5.69088 15.8418 5.75639L5.77734 10.7896C5.60795 10.8743 5.5 11.0475 5.5 11.2369V35.2251C5.5 35.5663 5.83439 35.8076 6.1582 35.6998L15.5254 32.5767Z" fill="white"/>
<path d="M17.5 4V34H14.5V4H17.5Z" fill="white"/>
<path d="M28.5 19V10C28.5 9.17157 29.1716 8.5 30 8.5C30.8284 8.5 31.5 9.17157 31.5 10V19C31.5 19.8284 30.8284 20.5 30 20.5C29.1716 20.5 28.5 19.8284 28.5 19Z" fill="white"/>
<path d="M42.5 32.0801C42.4996 28.4316 39.5754 25.5 36 25.5C32.4246 25.5 29.5004 28.4316 29.5 32.0801C29.5 33.9701 30.3325 35.4399 31.6484 36.9414C32.3178 37.7052 33.0681 38.431 33.8789 39.2285C34.5926 39.9305 35.342 40.6868 36.0273 41.5039C36.7125 40.7125 37.4569 39.9657 38.1621 39.2656C38.9641 38.4694 39.7125 37.73 40.373 36.957C41.68 35.4277 42.5 33.9314 42.5 32.0801ZM45.5 32.0801C45.5 34.9495 44.1803 37.1205 42.6543 38.9062C41.8985 39.7907 41.0556 40.62 40.2754 41.3945C39.4778 42.1863 38.741 42.9253 38.0996 43.6934C37.0806 44.9135 35.2136 44.9492 34.123 43.8789L33.916 43.6504C33.295 42.8791 32.5679 42.1468 31.7754 41.3672C31.0025 40.607 30.1534 39.7879 29.3926 38.9199C27.8479 37.1574 26.5 35.0046 26.5 32.0801C26.5004 26.8032 30.7395 22.5 36 22.5C41.2605 22.5 45.4996 26.8032 45.5 32.0801Z" fill="white"/>
<path d="M36.0176 30C37.1221 30 38.0176 30.8954 38.0176 32C38.0176 33.1046 37.1221 34 36.0176 34H36C34.8954 34 34 33.1046 34 32C34 30.8954 34.8954 30 36 30H36.0176Z" fill="white"/>
</svg>
