<svg width="48" height="48" viewBox="0 0 48 48" fill="none" xmlns="http://www.w3.org/2000/svg">
<path d="M36.498 13C36.498 12.1715 35.8266 11.5 34.998 11.5C34.1697 11.5 33.498 12.1716 33.498 13C33.498 13.8284 34.1697 14.5 34.998 14.5C35.8266 14.5 36.498 13.8285 36.498 13ZM39.498 13C39.498 15.4852 37.4835 17.5 34.998 17.5C32.5128 17.5 30.498 15.4853 30.498 13C30.498 10.5147 32.5128 8.5 34.998 8.5C37.4835 8.5 39.498 10.5148 39.498 13Z" fill="white"/>
<path d="M31.0605 19.0605L29.9395 20.1777C30.4086 21.1541 30.5065 22.2632 30.2246 23.291L27.332 22.498C27.465 22.0134 27.3388 21.4593 26.9395 21.0605C26.3443 20.4664 25.4208 20.4827 24.877 21.0254C24.4724 21.4293 24.4739 21.626 24.4766 21.6777C24.482 21.7782 24.5561 22.1313 25.207 22.7812C26.0759 23.6487 26.8014 24.6951 26.8887 25.9414C26.98 27.2492 26.3475 28.359 25.4336 29.2715C24.4232 30.2802 23.2134 30.7592 21.9434 30.6191C21.2797 30.5459 20.6723 30.3088 20.1289 29.9824L19.0645 31.0566L16.9355 28.9434L18.043 27.8262C17.6098 27.0062 17.4151 26.0934 17.4941 25.1973L18.9883 25.3281L20.4824 25.4609C20.4417 25.9235 20.6147 26.4787 21.0605 26.9238C21.5497 27.4121 21.9742 27.6037 22.2715 27.6367C22.5003 27.662 22.8433 27.6188 23.3145 27.1484C23.8813 26.5824 23.9031 26.2734 23.8945 26.1504C23.8813 25.9657 23.7509 25.5683 23.0879 24.9062C22.2063 24.0262 21.5435 23.0104 21.4805 21.8398C21.4149 20.6193 22.0187 19.6403 22.7578 18.9023C24.1307 17.5321 26.1643 17.2716 27.8145 18.0605L28.9395 16.9395L31.0605 19.0605Z" fill="white"/>
<path d="M45.5002 2.5V23.9219C45.5001 24.3703 45.3213 24.8012 45.0021 25.1211L25.1799 45L25.1779 45.002C24.5153 45.6642 23.4404 45.667 22.7756 45.0039V45.002L2.99822 25.2441C2.33398 24.5804 2.33453 23.504 2.99627 22.8398L22.7834 3L22.9084 2.88672C23.2109 2.63795 23.5916 2.5002 23.9865 2.5H45.5002ZM6.03728 24.0391L23.9748 41.9609L42.5002 23.3828V5.5H24.5275L6.03728 24.0391Z" fill="white"/>
</svg>
