<svg width="45" height="45" viewBox="0 0 45 45" fill="none" xmlns="http://www.w3.org/2000/svg">
<path d="M18.0302 0.430743C22.3751 -0.433347 26.8788 0.0088918 30.9716 1.70418C35.0644 3.39953 38.563 6.27073 41.0243 9.95416C43.4855 13.6378 44.7997 17.9692 44.7997 22.3994C44.7933 28.3382 42.4306 34.0321 38.2313 38.2314C34.032 42.4307 28.338 44.7934 22.3993 44.7998C17.9691 44.7998 13.6376 43.4856 9.95404 41.0244C6.27061 38.5631 3.39941 35.0645 1.70405 30.9717C0.00876973 26.8789 -0.433469 22.3752 0.43062 18.0303C1.29493 13.6851 3.42682 9.69232 6.55951 6.55963C9.6922 3.42695 13.685 1.29505 18.0302 0.430743ZM26.7079 43.9678H26.7099H26.7079ZM12.2743 41.9326C12.5144 42.057 12.7568 42.1767 13.0009 42.292C12.5129 42.0614 12.0327 41.8126 11.5615 41.5459L12.2743 41.9326ZM22.3993 2.37019C18.4381 2.37019 14.5661 3.54639 11.2724 5.74714C7.97879 7.94789 5.41135 11.0757 3.89546 14.7354C2.37972 18.395 1.98206 22.4227 2.75483 26.3076C3.52774 30.1925 5.43641 33.7607 8.23724 36.5615C11.0381 39.3623 14.6063 41.2711 18.4911 42.0439C22.3761 42.8167 26.4038 42.419 30.0634 40.9033C33.723 39.3874 36.8509 36.8199 39.0516 33.5264C41.2524 30.2327 42.4285 26.3607 42.4286 22.3994C42.4223 17.0896 40.3102 11.9979 36.5555 8.24322C33.0354 4.72308 28.34 2.64838 23.3915 2.39753L22.3993 2.37019ZM16.4755 41.9463C17.0442 42.1186 17.6213 42.267 18.206 42.3896C17.6213 42.267 17.0442 42.1186 16.4755 41.9463ZM28.37 41.9326C28.5133 41.8888 28.6572 41.8468 28.7997 41.7998L28.8446 41.7842C28.6872 41.8365 28.5284 41.8842 28.37 41.9326ZM6.68451 23.5713C10.3313 23.5757 13.8284 25.026 16.4071 27.6045C18.9859 30.1834 20.436 33.6802 20.4403 37.3271V38.5947C20.4403 38.9092 20.3151 39.2122 20.0927 39.4346C19.8704 39.6562 19.5687 39.7803 19.2548 39.7803C19.1797 39.7803 19.104 39.773 19.0302 39.7588C15.4277 39.0592 12.1304 37.2551 9.60052 34.5967C7.07095 31.9382 5.43127 28.5574 4.91108 24.9248C4.88704 24.757 4.90048 24.5856 4.94819 24.4229C4.99607 24.26 5.0792 24.1079 5.19038 23.9795C5.3013 23.8517 5.43887 23.7492 5.59272 23.6787C5.74686 23.6084 5.91547 23.5715 6.0849 23.5713H6.68451ZM38.7098 23.5713C38.8795 23.5713 39.0496 23.6084 39.204 23.6787C39.3578 23.7491 39.4953 23.8518 39.6063 23.9795C39.7176 24.1079 39.8006 24.2599 39.8485 24.4229C39.8962 24.5857 39.9077 24.7569 39.8837 24.9248C39.3622 28.5574 37.7242 31.9384 35.1942 34.5967C32.6643 37.2547 29.3686 39.0583 25.7665 39.7588H25.7645C25.6908 39.7729 25.615 39.7803 25.5399 39.7803C25.2262 39.7799 24.924 39.6563 24.702 39.4346C24.48 39.2122 24.3544 38.909 24.3544 38.5947V37.3271C24.3588 33.6802 25.8109 30.1833 28.3895 27.6045C30.9683 25.026 34.4655 23.5758 38.1122 23.5713H38.7098ZM19.2548 39.3818C19.3035 39.3818 19.3521 39.3751 19.3993 39.3662C19.3522 39.375 19.3034 39.3818 19.2548 39.3818ZM25.2548 39.3252C25.2974 39.342 25.3406 39.3571 25.3856 39.3662L25.5399 39.3818V39.3799C25.4412 39.3797 25.345 39.3606 25.2548 39.3252ZM19.4286 39.3584C19.462 39.3507 19.4943 39.341 19.5263 39.3291C19.4943 39.3409 19.462 39.3508 19.4286 39.3584ZM26.3466 39.2256C26.1957 39.261 26.0436 39.2918 25.8915 39.3232C26.2634 39.2463 26.6325 39.1603 26.997 39.0596L26.3466 39.2256ZM19.5692 39.3115C19.6016 39.2972 19.6327 39.2812 19.663 39.2627C19.6327 39.2812 19.6017 39.2973 19.5692 39.3115ZM25.1103 39.251C25.145 39.2739 25.1819 39.2925 25.2196 39.3096C25.1819 39.2925 25.145 39.2738 25.1103 39.251ZM24.8876 39.0322C24.9159 39.0747 24.9487 39.1147 24.9853 39.1514C25.0205 39.1865 25.0599 39.2175 25.1005 39.2451C25.0597 39.2175 25.0206 39.1867 24.9853 39.1514C24.9486 39.1147 24.916 39.0747 24.8876 39.0322ZM7.95209 36.8447H7.95404C7.85878 36.7495 7.76602 36.6507 7.67279 36.5537C7.7659 36.6506 7.85695 36.7496 7.95209 36.8447ZM7.5224 25.9737C8.14712 28.5866 9.4504 30.9929 11.3036 32.9463C13.1552 34.8975 15.4881 36.3233 18.0614 37.085C17.9964 34.2108 16.8523 31.4635 14.8446 29.3975C12.9001 27.3969 10.2927 26.1818 7.5224 25.9737ZM37.2704 25.9737C34.5012 26.1826 31.8959 27.3975 29.952 29.3975C27.9443 31.4636 26.7964 34.2107 26.7313 37.085C29.3058 36.3236 31.6388 34.8982 33.4911 32.9463C35.3446 30.9929 36.6455 28.5867 37.2704 25.9737ZM20.0302 36.8779C20.028 36.8141 20.0275 36.7502 20.0243 36.6865C20.0275 36.7502 20.028 36.8141 20.0302 36.8779ZM7.25482 36.1064C7.32037 36.1789 7.38545 36.2517 7.45209 36.3232C7.38546 36.2517 7.32036 36.1789 7.25482 36.1064ZM40.6942 34.5986C40.3816 35.0672 40.0454 35.5207 39.6962 35.9658C40.0454 35.5207 40.3815 35.0672 40.6942 34.5986ZM24.8954 35.4111C24.8756 35.5466 24.8622 35.683 24.8466 35.8193C24.8622 35.683 24.8756 35.5466 24.8954 35.4111ZM13.0673 35.0381C13.1398 35.0917 13.2146 35.142 13.288 35.1943C13.178 35.1158 13.0679 35.0374 12.9599 34.9561L13.0673 35.0381ZM25.0009 34.792C24.982 34.8892 24.9669 34.9872 24.9501 35.085C24.9668 34.9872 24.982 34.8892 25.0009 34.792ZM19.8251 34.9736C19.817 34.9287 19.8102 34.8837 19.8017 34.8389C19.8102 34.8837 19.817 34.9287 19.8251 34.9736ZM12.5868 34.665C12.6857 34.7442 12.785 34.8227 12.8857 34.8994C12.785 34.8227 12.6857 34.7442 12.5868 34.665ZM19.7001 34.3564C19.6891 34.3082 19.6785 34.26 19.6669 34.2119C19.6785 34.26 19.6891 34.3082 19.7001 34.3564ZM25.1278 34.2178C25.1167 34.2638 25.1072 34.3102 25.0966 34.3564C25.1072 34.3102 25.1168 34.2638 25.1278 34.2178ZM11.7997 33.9932C11.8297 34.0206 11.8614 34.0461 11.8915 34.0732C11.7256 33.9236 11.561 33.7712 11.4013 33.6143L11.7997 33.9932ZM17.7997 33.4248H17.8017H17.7997ZM19.5673 33.8252C19.5401 33.7253 19.5128 33.6255 19.4833 33.5264C19.5128 33.6255 19.5401 33.7253 19.5673 33.8252ZM25.2978 33.5811C25.2741 33.6615 25.2515 33.7423 25.2294 33.8232C25.2515 33.7423 25.2741 33.6615 25.2978 33.5811ZM35.6102 33.5264C35.6656 33.4606 35.7219 33.3957 35.7762 33.3291C35.7219 33.3957 35.6656 33.4606 35.6102 33.5264ZM33.7802 33.2217H33.7821H33.7802ZM19.413 33.3037C19.3742 33.1814 19.3342 33.0596 19.2919 32.9385C19.3342 33.0596 19.3742 33.1814 19.413 33.3037ZM25.5048 32.9385C25.4658 33.05 25.4275 33.1618 25.3915 33.2744C25.4275 33.1618 25.4658 33.0501 25.5048 32.9385ZM36.0614 32.9658C36.0846 32.9357 36.1087 32.9062 36.1317 32.876C36.1087 32.9062 36.0846 32.9357 36.0614 32.9658ZM19.2021 32.6904C19.1532 32.5588 19.1027 32.4279 19.0497 32.2979C19.1027 32.4279 19.1532 32.5588 19.2021 32.6904ZM25.7216 32.3564C25.6771 32.467 25.6361 32.5788 25.5946 32.6904C25.6361 32.5788 25.6772 32.467 25.7216 32.3564ZM36.4286 32.4756C36.4605 32.4311 36.4909 32.3856 36.5223 32.3408C36.4909 32.3856 36.4605 32.4311 36.4286 32.4756ZM34.8524 31.9678H34.8505H34.8524ZM18.9716 32.1104C18.9175 31.9832 18.8616 31.8569 18.8036 31.7315C18.8616 31.8569 18.9175 31.9832 18.9716 32.1104ZM25.9618 31.8018C25.9275 31.8771 25.8932 31.9524 25.8602 32.0283C25.8932 31.9524 25.9275 31.8771 25.9618 31.8018ZM36.7704 31.9795C36.8097 31.9204 36.849 31.8613 36.8876 31.8018C36.849 31.8613 36.8097 31.9204 36.7704 31.9795ZM15.1318 29.1182C14.7308 28.7056 14.3018 28.3257 13.8505 27.9795C14.3015 28.3255 14.729 28.7059 15.1298 29.1182C15.7976 29.8052 16.3758 30.5644 16.8525 31.3779C16.376 30.5645 15.7994 29.8051 15.1318 29.1182ZM18.6982 31.5068C18.6459 31.3992 18.5912 31.2928 18.536 31.1865C18.5912 31.2928 18.6459 31.3992 18.6982 31.5068ZM26.2938 31.124C26.227 31.2511 26.1592 31.3777 26.0966 31.5068C26.1592 31.3777 26.227 31.2512 26.2938 31.124ZM37.1083 31.4522C37.15 31.3842 37.1905 31.3156 37.2313 31.2471C37.1905 31.3156 37.15 31.3842 37.1083 31.4522ZM18.415 30.9561C18.3395 30.8173 18.261 30.6801 18.1806 30.544C18.261 30.6801 18.3395 30.8173 18.415 30.9561ZM26.538 30.6826C26.4858 30.7734 26.4337 30.8641 26.3837 30.9561C26.4337 30.8641 26.4858 30.7734 26.538 30.6826ZM37.4344 30.8975C37.4747 30.8261 37.5144 30.7545 37.5536 30.6826C37.5144 30.7545 37.4747 30.8261 37.4344 30.8975ZM18.1025 30.4131C18.0362 30.3038 17.9668 30.1964 17.8974 30.0889C17.9668 30.1964 18.0362 30.3038 18.1025 30.4131ZM37.7235 30.3604C37.764 30.2823 37.8053 30.2047 37.8446 30.126C37.8053 30.2047 37.764 30.2823 37.7235 30.3604ZM36.9989 28.1729C36.8651 28.5122 36.7183 28.846 36.5614 29.1748C36.7183 28.846 36.8651 28.5122 36.9989 28.1729ZM17.7587 29.874C17.6755 29.7505 17.5883 29.6297 17.5009 29.5088C17.5883 29.6297 17.6755 29.7505 17.7587 29.874ZM38.0067 29.792C38.0511 29.698 38.0948 29.6036 38.1376 29.5088C38.0948 29.6036 38.0511 29.698 38.0067 29.792ZM27.6571 29.0322C27.5696 29.1424 27.4811 29.2516 27.3974 29.3643C27.4811 29.2516 27.5697 29.1424 27.6571 29.0322ZM17.3954 29.3623C17.3342 29.28 17.2711 29.1991 17.2079 29.1182C17.2711 29.1991 17.3342 29.28 17.3954 29.3623ZM38.284 29.1748C38.3105 29.1127 38.3345 29.0497 38.3602 28.9873C38.3345 29.0497 38.3105 29.1127 38.284 29.1748ZM21.3993 18.9561C22.3912 18.7589 23.42 18.8601 24.3544 19.2471C25.2884 19.6343 26.0876 20.2892 26.6493 21.1299C27.211 21.9708 27.5106 22.9604 27.5106 23.9717C27.509 25.3273 26.9692 26.6264 26.0106 27.585C25.0521 28.5435 23.7529 29.0832 22.3974 29.085C21.3861 29.085 20.3965 28.7853 19.5556 28.2236C18.7149 27.6619 18.0599 26.8628 17.6728 25.9287C17.2857 24.9943 17.1845 23.9657 17.3818 22.9737C17.5791 21.9816 18.0649 21.0698 18.7802 20.3545C19.4954 19.6393 20.4073 19.1534 21.3993 18.9561ZM1.28804 28.5889C1.33249 28.7406 1.3809 28.8911 1.42866 29.042C1.38087 28.8911 1.33252 28.7406 1.28804 28.5889ZM2.92671 28.5772C2.94981 28.65 2.97702 28.7214 3.00093 28.794C2.96722 28.6917 2.93147 28.5901 2.89936 28.4873L2.92671 28.5772ZM21.7216 28.6358C21.8296 28.6514 21.9386 28.6648 22.0478 28.6729L22.3974 28.6846C22.1703 28.6846 21.9445 28.6681 21.7216 28.6358ZM22.3974 28.6846C22.5461 28.6844 22.6939 28.6752 22.8407 28.6611C22.694 28.6752 22.546 28.6844 22.3974 28.6846ZM22.9677 28.6455C23.0667 28.6334 23.165 28.6189 23.2626 28.6006C23.1649 28.6189 23.0667 28.6334 22.9677 28.6455ZM21.3642 28.5693C21.4579 28.5904 21.5524 28.6068 21.6474 28.6221C21.5524 28.6068 21.4578 28.5904 21.3642 28.5693ZM38.5126 28.6123C38.5634 28.4803 38.6115 28.3472 38.659 28.2139C38.6115 28.3472 38.5633 28.4803 38.5126 28.6123ZM23.4579 28.5576C23.5314 28.5406 23.6042 28.5215 23.6767 28.501C23.6042 28.5215 23.5314 28.5406 23.4579 28.5576ZM20.7782 28.3955C20.8417 28.4187 20.9052 28.4415 20.9696 28.4619C20.9053 28.4415 20.8417 28.4187 20.7782 28.3955ZM23.8739 28.4404C23.9456 28.4167 24.0164 28.3914 24.0868 28.3643C24.0164 28.3914 23.9456 28.4167 23.8739 28.4404ZM20.4071 28.2432C20.485 28.2794 20.5639 28.3128 20.6435 28.3447C20.5639 28.3128 20.485 28.2794 20.4071 28.2432ZM44.3973 22.3994C44.3954 24.2218 44.1694 26.0209 43.7313 27.7588C43.9065 27.064 44.0482 26.3594 44.1551 25.6475C44.3157 24.5787 44.3981 23.4932 44.3993 22.3994H44.3973ZM24.286 28.2822C24.3651 28.2476 24.4434 28.2118 24.5204 28.1729C24.4434 28.2118 24.3651 28.2476 24.286 28.2822ZM20.0927 28.083C19.9858 28.0231 19.8806 27.9581 19.7782 27.8897C19.5847 27.7603 19.4004 27.619 19.2294 27.4639C19.4006 27.6192 19.5845 27.7622 19.7782 27.8916C19.8806 27.96 19.9858 28.0232 20.0927 28.083ZM2.71187 27.8545C2.74527 27.9751 2.78371 28.0941 2.81929 28.2139C2.77931 28.0793 2.73738 27.9452 2.70015 27.8096L2.71187 27.8545ZM29.6356 27.0147C29.3019 27.289 28.9789 27.5796 28.6708 27.8877L28.4013 28.1729C28.4912 28.0775 28.5798 27.9806 28.6727 27.8877C28.9806 27.5798 29.3022 27.2888 29.6356 27.0147ZM24.661 28.0986C24.734 28.0586 24.805 28.0156 24.8759 27.9717C24.805 28.0156 24.734 28.0586 24.661 28.0986ZM38.7176 28.044C38.7791 27.8658 38.8397 27.6872 38.8954 27.5069C38.8397 27.6872 38.7791 27.8657 38.7176 28.044ZM25.7294 27.3018C25.5185 27.5126 25.2889 27.7009 25.0458 27.8662C25.1613 27.7876 25.275 27.7053 25.3837 27.6162L25.7294 27.3037C25.8379 27.1952 25.9375 27.0794 26.0341 26.9619C25.9377 27.079 25.8375 27.1936 25.7294 27.3018ZM38.9188 27.4307C38.9684 27.2675 39.0147 27.1033 39.0594 26.9385C39.0147 27.1033 38.9684 27.2675 38.9188 27.4307ZM2.00874 23.6319C2.0644 24.5526 2.18094 25.4721 2.36226 26.3838C2.41155 26.6316 2.46608 26.8789 2.52437 27.124L2.36421 26.3858C2.18274 25.4735 2.0645 24.5533 2.00874 23.6319ZM23.0146 27.0498C22.8163 27.0896 22.6152 27.1093 22.413 27.1104C22.6152 27.1094 22.8163 27.0895 23.0146 27.0498ZM26.0692 26.917C26.1513 26.8147 26.2307 26.7109 26.3036 26.6026C26.2306 26.7108 26.1514 26.8147 26.0692 26.917ZM23.6005 26.874L23.8114 26.7783C23.8584 26.7547 23.9025 26.7261 23.9481 26.7002C23.8358 26.7641 23.7208 26.8242 23.6005 26.874ZM39.1024 26.7822C39.1505 26.5984 39.1932 26.4132 39.2352 26.2276C39.1932 26.4132 39.1505 26.5984 39.1024 26.7822ZM22.3954 21.2276C21.8538 21.2278 21.3244 21.3897 20.8739 21.6905C20.423 21.9918 20.0698 22.4199 19.8622 22.9209C19.6546 23.4221 19.6001 23.9748 19.706 24.5069C19.8119 25.0386 20.0745 25.5278 20.4579 25.9112C20.8414 26.2942 21.3306 26.5554 21.8622 26.6612C22.3939 26.7667 22.9453 26.7123 23.4462 26.5049C23.9471 26.2974 24.3754 25.9459 24.6767 25.4951C24.9779 25.0443 25.1394 24.5139 25.1395 23.9717C25.1386 23.2446 24.8489 22.5465 24.3349 22.0323C23.8207 21.5184 23.1223 21.2286 22.3954 21.2276ZM0.750932 26.3076C0.772207 26.4256 0.794128 26.5435 0.817338 26.6612C0.794103 26.5435 0.772233 26.4256 0.750932 26.3076ZM37.7743 25.5479C37.7377 25.7277 37.6999 25.907 37.6571 26.085C37.6999 25.9067 37.7415 25.7279 37.7782 25.5479H37.7743ZM30.6513 26.2569C30.5347 26.3355 30.4198 26.4167 30.3056 26.499C30.4198 26.4167 30.5347 26.3355 30.6513 26.2569ZM26.3915 26.4619C26.4302 26.3999 26.4691 26.3381 26.5048 26.2744C26.469 26.3381 26.4302 26.3999 26.3915 26.4619ZM39.2489 26.169C39.2738 26.0573 39.2965 25.9453 39.3192 25.833C39.2965 25.9453 39.2738 26.0573 39.2489 26.169ZM31.1688 25.9268C31.0774 25.9825 30.9875 26.0407 30.8973 26.0987C30.9875 26.0407 31.0774 25.9825 31.1688 25.9268ZM26.6122 26.0713C26.6442 26.0071 26.673 25.9416 26.702 25.876C26.673 25.9416 26.6442 26.0071 26.6122 26.0713ZM0.623979 25.5264C0.642681 25.6568 0.66348 25.7869 0.684526 25.917C0.66345 25.7869 0.64271 25.6568 0.623979 25.5264ZM12.9716 25.5479V25.5498V25.5479ZM31.7606 25.585C31.6435 25.6484 31.5283 25.7153 31.413 25.7822C31.5283 25.7153 31.6435 25.6484 31.7606 25.585ZM25.0106 25.7178L25.1337 25.5186C25.1594 25.4731 25.1826 25.4264 25.206 25.3799C25.1479 25.4959 25.0833 25.6091 25.0106 25.7178ZM26.7821 25.6885C26.8126 25.6106 26.8398 25.5316 26.8661 25.4522C26.8397 25.5316 26.8127 25.6106 26.7821 25.6885ZM32.3524 25.2842C32.202 25.3563 32.0529 25.4311 31.9052 25.5088C32.0529 25.4311 32.202 25.3563 32.3524 25.2842ZM6.0849 23.9698C5.97279 23.97 5.86073 23.9955 5.75873 24.042L5.6142 24.128C5.5698 24.1613 5.52774 24.199 5.49116 24.2412C5.41761 24.3262 5.36272 24.4264 5.331 24.5342C5.29929 24.6421 5.29162 24.7568 5.30756 24.8682C5.33359 25.0499 5.36567 25.2307 5.39741 25.4112C5.36568 25.2308 5.33554 25.0499 5.30952 24.8682C5.29352 24.7567 5.3012 24.6423 5.33295 24.5342C5.36475 24.4265 5.41953 24.3261 5.49311 24.2412C5.56679 24.1564 5.65848 24.0887 5.76069 24.042C5.86301 23.9954 5.9744 23.9717 6.08686 23.9717H6.68451L6.68256 23.9698H6.0849ZM17.8232 25.1104C17.8447 25.1965 17.871 25.2813 17.8974 25.3662C17.871 25.2813 17.8446 25.1965 17.8232 25.1104ZM25.5302 24.2041C25.5006 24.6016 25.3951 24.9892 25.2216 25.3467C25.4296 24.9198 25.5398 24.4502 25.5399 23.9717L25.5302 24.2041ZM26.9286 25.253C26.9379 25.22 26.9454 25.1865 26.954 25.1533C26.9453 25.1865 26.938 25.22 26.9286 25.253ZM32.8524 25.0576C32.7314 25.1096 32.6106 25.1622 32.4911 25.2178C32.6106 25.1622 32.7314 25.1096 32.8524 25.0576ZM0.52437 24.7354C0.54028 24.8847 0.558141 25.0337 0.577104 25.1826C0.558108 25.0337 0.540313 24.8847 0.52437 24.7354ZM19.4384 25.0303C19.4521 25.0686 19.4682 25.1059 19.4833 25.1436C19.4394 25.0344 19.3996 24.9235 19.3681 24.8096L19.4384 25.0303ZM33.4266 24.8272C33.3423 24.8589 33.2584 24.8914 33.1747 24.9248C33.2584 24.8914 33.3423 24.8589 33.4266 24.8272ZM34.0497 24.6104C33.9432 24.6445 33.8369 24.6791 33.7313 24.7158C33.8369 24.6791 33.9432 24.6445 34.0497 24.6104ZM17.7118 24.4717C17.7202 24.5495 17.7309 24.6268 17.7431 24.7041C17.7309 24.6268 17.7201 24.5495 17.7118 24.4717ZM34.6903 24.4229C34.5637 24.4566 34.4368 24.489 34.3114 24.5264C34.4368 24.489 34.5637 24.4566 34.6903 24.4229ZM0.459917 24.003C0.468892 24.1261 0.47817 24.2491 0.489214 24.3721C0.478143 24.2491 0.468918 24.1261 0.459917 24.003ZM17.6884 24.1436C17.6912 24.2199 17.6955 24.296 17.7021 24.3721C17.6956 24.296 17.6912 24.2199 17.6884 24.1436ZM35.2782 24.2803C35.1621 24.3056 35.0458 24.33 34.9305 24.3584C35.0458 24.33 35.1621 24.3056 35.2782 24.2803ZM37.4501 23.9873C36.8108 24.0198 36.1777 24.0977 35.5555 24.2197C36.3918 24.0558 37.2477 23.9728 38.1122 23.9717H38.7118L38.7098 23.9698H38.1122C37.8909 23.97 37.6701 23.9762 37.4501 23.9873ZM8.00287 24.0362C8.40692 24.0767 8.80754 24.1373 9.20404 24.2139C8.80752 24.1372 8.40693 24.0767 8.00287 24.0362ZM17.6884 23.7315C17.6999 23.504 17.7296 23.277 17.7743 23.0518C17.8435 22.704 17.9513 22.3664 18.0946 22.0459C17.951 22.3668 17.8416 22.7036 17.7724 23.0518L17.7177 23.3955C17.7039 23.5073 17.6941 23.6194 17.6884 23.7315ZM25.4774 23.3545H25.4794H25.4774ZM0.414995 23.1553C0.419652 23.2914 0.423441 23.4275 0.43062 23.5635C0.423414 23.4275 0.419677 23.2914 0.414995 23.1553ZM1.99312 23.3936C1.99559 23.4444 2.00003 23.4951 2.00288 23.5459C1.99035 23.3233 1.98273 23.1006 1.97749 22.878L1.99312 23.3936ZM27.0731 23.3936C27.0712 23.378 27.0713 23.3622 27.0692 23.3467C27.0713 23.3622 27.0712 23.378 27.0731 23.3936ZM19.3485 23.208C19.3408 23.239 19.3358 23.2706 19.329 23.3018C19.3523 23.1953 19.3787 23.0893 19.413 22.9854L19.3485 23.208ZM27.0282 23.1104C27.0234 23.0844 27.0198 23.0582 27.0145 23.0323C27.0198 23.0582 27.0234 23.0844 27.0282 23.1104ZM1.97163 22.3545C1.97129 22.512 1.97224 22.6696 1.97554 22.8272C1.97222 22.6696 1.9713 22.512 1.97163 22.3545ZM0.401324 22.5244C0.401792 22.6091 0.401833 22.6937 0.403277 22.7783C0.401818 22.6937 0.401806 22.6091 0.401324 22.5244ZM26.9559 22.7783C26.9518 22.7626 26.9466 22.7472 26.9423 22.7315C26.9466 22.7472 26.9518 22.7626 26.9559 22.7783ZM26.8759 22.5088C26.8667 22.4806 26.8563 22.4529 26.8466 22.4248C26.8563 22.4529 26.8667 22.4806 26.8759 22.5088ZM18.413 21.4502C18.5981 21.1576 18.8161 20.8851 19.0634 20.6377C19.1399 20.5612 19.2185 20.4858 19.2997 20.4151C19.2183 20.486 19.1401 20.561 19.0634 20.6377L18.8251 20.8936C18.6738 21.0691 18.5363 21.2554 18.413 21.4502ZM44.368 21.3096C44.3597 21.1414 44.3509 20.9734 44.3387 20.8057C44.3509 20.9734 44.3597 21.1414 44.368 21.3096ZM22.1649 20.8369C22.2419 20.8313 22.3198 20.8291 22.3974 20.8291C22.7093 20.8296 23.0163 20.8768 23.3095 20.9659C23.4075 20.9957 23.5039 21.0301 23.5985 21.0694L23.6005 21.0674C23.2229 20.9107 22.8141 20.8277 22.3974 20.8272C22.3196 20.8272 22.2421 20.8312 22.1649 20.8369ZM26.2079 21.2002C26.1794 21.161 26.1516 21.1213 26.122 21.083C26.1516 21.1213 26.1794 21.161 26.2079 21.2002ZM26.0243 20.9639C25.9889 20.9212 25.9537 20.8783 25.9169 20.8369C25.9537 20.8783 25.9889 20.9212 26.0243 20.9639ZM25.7587 20.669C25.7425 20.6525 25.7262 20.6363 25.7099 20.6201C25.7262 20.6363 25.7425 20.6525 25.7587 20.669ZM44.3153 20.5205C44.3002 20.3445 44.2838 20.1687 44.2645 19.9932C44.2838 20.1687 44.3002 20.3445 44.3153 20.5205ZM25.5692 20.4873C25.5262 20.4482 25.4828 20.4096 25.4384 20.3721C25.4828 20.4096 25.5262 20.4482 25.5692 20.4873ZM19.5595 20.2061C19.5081 20.2448 19.4589 20.2863 19.4091 20.3272C19.4589 20.2863 19.5081 20.2448 19.5595 20.2061ZM25.3485 20.2979C25.291 20.2516 25.2324 20.2067 25.1728 20.1631C25.2325 20.2066 25.2909 20.2516 25.3485 20.2979ZM19.831 20.0186C19.7782 20.0528 19.7261 20.0877 19.6747 20.1241C19.7261 20.0877 19.7783 20.0528 19.831 20.0186ZM25.081 20.0967C25.0145 20.0506 24.9467 20.0066 24.8778 19.9639C24.9467 20.0065 25.0145 20.0507 25.081 20.0967ZM20.1161 19.8467C20.0543 19.8808 19.9927 19.9153 19.9325 19.9522C19.9927 19.9153 20.0544 19.8809 20.1161 19.8467ZM44.243 19.8233C44.2197 19.6256 44.1955 19.4282 44.1668 19.2315C44.1955 19.4282 44.2197 19.6256 44.243 19.8233ZM20.3681 19.7178C20.3255 19.7381 20.2831 19.7587 20.2411 19.7803C20.2831 19.7587 20.3255 19.7381 20.3681 19.7178ZM22.3974 4.71394C26.3533 4.71394 30.1959 6.04262 33.3075 8.48541C36.419 10.9284 38.6207 14.3455 39.5594 18.1885C39.6022 18.3631 39.6052 18.546 39.5672 18.7217C39.5293 18.897 39.4513 19.0611 39.3407 19.2022C39.2297 19.3434 39.0882 19.4596 38.9266 19.5381C38.7651 19.6165 38.5867 19.6574 38.4071 19.6573H31.827C31.6432 19.6571 31.4602 19.6125 31.2958 19.5303C31.1318 19.4481 30.9879 19.3294 30.8778 19.1827L29.4638 17.2959C29.2807 17.0541 29.0437 16.8574 28.7724 16.7217C28.5688 16.62 28.3487 16.5552 28.1239 16.5284L27.8974 16.5127H16.8993L16.6728 16.5284C16.4476 16.5552 16.2263 16.6198 16.0224 16.7217C15.7516 16.8573 15.5157 17.0545 15.3329 17.2959L13.9169 19.1827C13.8066 19.3294 13.6632 19.4482 13.4989 19.5303C13.3346 19.6124 13.1533 19.6572 12.9697 19.6573H6.38764C6.20845 19.657 6.03122 19.6145 5.87006 19.5362C5.70884 19.4576 5.56672 19.3433 5.456 19.2022C5.34529 19.0609 5.26728 18.8952 5.22944 18.7198C5.19181 18.5445 5.19459 18.3627 5.23725 18.1885C6.17594 14.3456 8.37785 10.9285 11.4892 8.48541C14.6004 6.0428 18.4419 4.71429 22.3974 4.71394ZM20.704 19.5733C20.6464 19.5954 20.5888 19.6173 20.5321 19.6416C20.5887 19.6172 20.6464 19.5955 20.704 19.5733ZM20.9989 19.4717C20.9417 19.4895 20.8835 19.5045 20.8271 19.5244C20.8835 19.5045 20.9417 19.4895 20.9989 19.4717ZM22.1669 19.2608C21.9362 19.2719 21.7059 19.3013 21.4774 19.3467C21.7057 19.3013 21.9364 19.2721 22.1669 19.2608ZM31.6473 19.2354C31.7061 19.2492 31.7663 19.2569 31.827 19.2569L31.6473 19.2354ZM6.04389 19.1768H6.04584H6.04389ZM44.1278 18.9815C44.0971 18.7864 44.066 18.5915 44.0301 18.3975C44.066 18.5915 44.0971 18.7864 44.1278 18.9815ZM5.60248 18.46C5.60168 18.5188 5.60765 18.5779 5.62006 18.6358H5.62201C5.59704 18.5196 5.59771 18.3996 5.62592 18.2842L5.60248 18.46ZM44.0028 18.2588C43.9637 18.0549 43.9206 17.852 43.8758 17.6495C43.9206 17.852 43.9637 18.055 44.0028 18.2588ZM2.61616 17.3038C2.56769 17.4919 2.52249 17.6808 2.47944 17.8702C2.52246 17.6808 2.56771 17.4919 2.61616 17.3038ZM43.8251 17.4229C43.7851 17.251 43.7421 17.08 43.6981 16.9092C43.7421 17.08 43.7851 17.251 43.8251 17.4229ZM2.80171 16.6319C2.73605 16.855 2.67408 17.0789 2.61616 17.3038C2.67405 17.0789 2.73608 16.8549 2.80171 16.6319ZM22.3974 7.08502C19.1407 7.08528 15.9674 8.1238 13.3427 10.0518C10.8657 11.8716 8.99838 14.394 7.97748 17.2842H12.3779L13.4345 15.8721C13.8382 15.3362 14.3618 14.9009 14.9618 14.6006C15.5622 14.3004 16.2262 14.1431 16.8974 14.1416H27.8993C28.5703 14.1431 29.2327 14.3007 29.8329 14.6006C30.2831 14.8257 30.6905 15.1268 31.036 15.4893L31.3602 15.8721V15.8741L32.4188 17.2842H36.8173C35.7962 14.394 33.9293 11.8715 31.452 10.0518C28.8272 8.12392 25.6542 7.08502 22.3974 7.08502ZM38.8446 17.1319C38.8197 17.0538 38.7964 16.9752 38.7704 16.8975C38.7964 16.9752 38.8197 17.0538 38.8446 17.1319ZM8.08685 15.9366H8.08881H8.08685ZM43.6356 16.6709C43.5849 16.4828 43.5331 16.2951 43.4774 16.1084C43.5331 16.2951 43.5849 16.4828 43.6356 16.6709ZM2.99897 15.9971C2.94104 16.1727 2.88799 16.3496 2.83491 16.5264C2.89235 16.335 2.95147 16.144 3.0146 15.9541L2.99897 15.9971ZM28.1708 16.1319C28.2609 16.1426 28.3502 16.1578 28.4384 16.1788C28.6149 16.2206 28.7867 16.2827 28.9501 16.3643C28.9828 16.3806 29.0139 16.4012 29.0458 16.419C29.0142 16.4014 28.9844 16.3805 28.952 16.3643C28.6252 16.2009 28.2648 16.1156 27.8993 16.1143H27.8974C27.9887 16.1146 28.0805 16.1211 28.1708 16.1319ZM16.6259 16.1299V16.1319V16.1299ZM43.4129 15.8975C43.3599 15.7262 43.3041 15.5558 43.2469 15.3858C43.3041 15.5558 43.3599 15.7262 43.4129 15.8975ZM38.3876 15.8721C38.3574 15.798 38.3289 15.7231 38.2977 15.6495C38.3289 15.7231 38.3574 15.798 38.3876 15.8721ZM16.8974 14.542C16.2881 14.5434 15.6865 14.6856 15.1415 14.9581H15.1435C15.5523 14.7538 15.9926 14.6227 16.4443 14.5694L16.8993 14.542H16.8974ZM29.7977 15.0401C29.9861 15.1443 30.1647 15.2627 30.3329 15.3956C30.1648 15.2625 29.986 15.1444 29.7977 15.0401ZM8.67474 7.26666C6.44793 9.28613 4.68428 11.781 3.52436 14.5811C3.42772 14.8144 3.33669 15.0501 3.24897 15.2862L3.52632 14.5811C4.20286 12.948 5.08428 11.4183 6.1435 10.0264C6.29484 9.8276 6.44983 9.63164 6.60834 9.43853C7.24227 8.66604 7.93264 7.93981 8.67474 7.26666ZM38.1356 15.2862C38.0912 15.1876 38.0471 15.0889 38.0008 14.9913C38.0471 15.0889 38.0912 15.1876 38.1356 15.2862ZM43.1551 15.1143C43.0924 14.9357 43.0271 14.7581 42.9598 14.5811C43.0271 14.7581 43.0925 14.9357 43.1551 15.1143ZM37.8329 14.6495C37.791 14.5659 37.7491 14.4823 37.7059 14.3995C37.7491 14.4823 37.791 14.5659 37.8329 14.6495ZM42.8895 14.3995C42.817 14.2137 42.7425 14.0286 42.6649 13.8448C42.7425 14.0286 42.817 14.2137 42.8895 14.3995ZM37.5223 14.0557C37.4622 13.9464 37.4013 13.8375 37.3387 13.7295C37.4013 13.8375 37.4621 13.9464 37.5223 14.0557ZM42.5926 13.6749C42.5159 13.4973 42.4358 13.3212 42.3544 13.1456C42.4358 13.3212 42.5159 13.4973 42.5926 13.6749ZM37.163 13.4346C37.1158 13.3569 37.0687 13.2792 37.0204 13.2022C37.0687 13.2792 37.1158 13.3569 37.163 13.4346ZM42.2665 12.9561C42.1905 12.7963 42.112 12.6376 42.0321 12.4795C42.112 12.6376 42.1905 12.7963 42.2665 12.9561ZM36.8231 12.8956C36.7515 12.7866 36.6785 12.6786 36.6044 12.5713C36.6785 12.6786 36.7515 12.7866 36.8231 12.8956ZM36.4188 12.3077C36.3243 12.1761 36.228 12.0459 36.1298 11.917C36.228 12.0459 36.3243 12.1761 36.4188 12.3077ZM39.245 8.25104C39.7598 8.86409 40.2426 9.50673 40.6903 10.1768C41.1343 10.8413 41.5401 11.5274 41.9071 12.2315C41.6651 11.7671 41.4074 11.31 41.1317 10.8624L40.6922 10.1768C40.2443 9.50647 39.7601 8.86433 39.245 8.25104ZM39.9208 11.917C39.5789 11.346 39.2093 10.7903 38.8114 10.253C39.2093 10.7903 39.5789 11.3461 39.9208 11.917ZM36.0438 11.8057C35.9448 11.6779 35.8437 11.5518 35.7411 11.4268C35.8437 11.5518 35.9448 11.6779 36.0438 11.8057ZM35.5907 11.2432C35.4999 11.1357 35.4068 11.0302 35.3134 10.9249C35.4068 11.0302 35.4999 11.1357 35.5907 11.2432ZM31.6884 9.72955C32.1932 10.1004 32.6741 10.4999 33.1278 10.9249C32.6744 10.5001 32.1949 10.1003 31.6903 9.72955H31.6884ZM35.1161 10.7042C35.0494 10.6316 34.9809 10.5608 34.913 10.4893C34.9809 10.5608 35.0494 10.6316 35.1161 10.7042ZM34.1473 9.72955C34.0238 9.61482 33.8975 9.50293 33.7704 9.39166C33.8975 9.50294 34.0238 9.61482 34.1473 9.72955ZM11.7353 8.79986H11.7372H11.7353ZM39.1688 8.16315C39.0262 7.99522 38.8826 7.82847 38.7352 7.6651C38.8826 7.82847 39.0263 7.99522 39.1688 8.16315ZM14.7782 6.88776C14.3498 7.09849 13.9294 7.3269 13.5185 7.5733L14.1415 7.21784C14.3517 7.1034 14.5639 6.99321 14.7782 6.88776ZM38.5516 7.46588C38.4396 7.34477 38.3264 7.22499 38.2118 7.10651C38.3264 7.22499 38.4397 7.34477 38.5516 7.46588ZM38.0223 6.9151C37.8871 6.77869 37.7508 6.64356 37.6122 6.51081C37.7508 6.64356 37.8871 6.77869 38.0223 6.9151ZM7.39154 6.31159C7.20558 6.48507 7.02298 6.66257 6.84272 6.84284L7.42865 6.27839L7.39154 6.31159ZM23.0224 6.69635C23.3221 6.70829 23.6214 6.73185 23.9188 6.76081C23.4154 6.7118 22.9085 6.68466 22.3993 6.68463H22.3974L23.0224 6.69635ZM37.495 6.39948C37.3424 6.25556 37.1886 6.11314 37.0321 5.9737C37.1886 6.11315 37.3425 6.25556 37.495 6.39948ZM12.0693 4.77839C11.7242 4.98068 11.3817 5.19003 11.0478 5.41315C10.8383 5.55312 10.6323 5.69757 10.4286 5.84479C10.6327 5.69724 10.8398 5.55341 11.0497 5.41315C11.3834 5.19023 11.7245 4.98049 12.0693 4.77839ZM36.8856 5.84479C36.7375 5.71521 36.5879 5.58753 36.4364 5.46198C36.5879 5.58753 36.7375 5.71521 36.8856 5.84479ZM8.65716 5.21784C8.50018 5.3434 8.34601 5.47261 8.19232 5.60261C8.34601 5.47262 8.50018 5.34339 8.65716 5.21784ZM20.954 5.17487C20.4371 5.21827 19.9236 5.28486 19.415 5.37409C20.1593 5.24348 20.9141 5.16187 21.6747 5.12995L20.954 5.17487ZM36.2821 5.33698C36.1135 5.19977 35.943 5.06486 35.7704 4.93269C35.943 5.06486 36.1135 5.19976 36.2821 5.33698ZM9.23138 4.77448C9.07529 4.89111 8.92159 5.01104 8.76849 5.1319C8.9216 5.01105 9.07528 4.8911 9.23138 4.77448ZM35.6884 4.86823C35.5247 4.74419 35.3594 4.62245 35.1923 4.503C35.3594 4.62245 35.5247 4.74419 35.6884 4.86823ZM9.90911 4.29011C9.77501 4.38261 9.64278 4.47779 9.51068 4.57331C9.64279 4.4778 9.775 4.3826 9.90911 4.29011ZM13.6708 3.92878H13.6728H13.6708ZM34.9891 4.36042C34.84 4.25636 34.6897 4.15416 34.538 4.05378C34.6897 4.15417 34.8401 4.25636 34.9891 4.36042ZM10.5302 3.87605C10.389 3.96654 10.2495 4.05965 10.1103 4.15339C10.2495 4.05966 10.389 3.96653 10.5302 3.87605ZM34.3427 3.92488C34.1546 3.8033 33.9642 3.68529 33.7723 3.56941C33.9642 3.6853 34.1546 3.8033 34.3427 3.92488ZM11.1884 3.47175C11.0559 3.55022 10.9247 3.63073 10.7939 3.71198C10.9247 3.63074 11.0559 3.55021 11.1884 3.47175ZM33.6884 3.51863C33.4904 3.40029 33.2905 3.28512 33.0887 3.17292C33.2905 3.28512 33.4905 3.40028 33.6884 3.51863ZM21.6415 1.98543C20.3837 2.03204 19.1377 2.19392 17.9189 2.46785C19.3814 2.13934 20.8831 1.97189 22.3974 1.97175L21.6415 1.98543ZM11.8779 3.08113C11.7576 3.14665 11.6375 3.21258 11.5185 3.28035C11.6375 3.21259 11.7576 3.14664 11.8779 3.08113ZM32.9872 3.11433C32.8106 3.0174 32.6314 2.92524 32.452 2.83308C32.6314 2.92525 32.8106 3.0174 32.9872 3.11433ZM12.5907 2.71003C12.4521 2.77912 12.3139 2.84898 12.1767 2.92097C12.3139 2.84899 12.4521 2.77911 12.5907 2.71003ZM22.1376 0.399493C25.1003 0.364417 28.0542 0.92885 30.8173 2.07332C31.3113 2.27797 31.7967 2.50045 32.2723 2.73933C32.0389 2.6221 31.8033 2.50856 31.5653 2.39949L30.8192 2.07332C28.0558 0.928656 25.101 0.364212 22.1376 0.399493ZM13.2177 2.4073C13.1097 2.4569 13.0026 2.50831 12.8954 2.55964C13.0026 2.50832 13.1097 2.45689 13.2177 2.4073ZM14.1005 2.02644C13.9299 2.09594 13.7595 2.16561 13.5907 2.23933C13.7595 2.16563 13.9299 2.09593 14.1005 2.02644ZM14.8193 1.74715C14.634 1.81513 14.4497 1.8852 14.2665 1.95808C14.4497 1.88521 14.634 1.81512 14.8193 1.74715ZM19.5985 0.57918C19.1481 0.636996 18.6987 0.708051 18.2509 0.794023C18.6987 0.70807 19.1481 0.636973 19.5985 0.57918ZM21.0634 28.4893C21.1604 28.5179 21.2577 28.5451 21.3564 28.5674C21.2577 28.545 21.1604 28.5179 21.0634 28.4893ZM20.0927 28.083C20.1818 28.1329 20.2723 28.1797 20.3642 28.2236C20.2723 28.1797 20.1817 28.1329 20.0927 28.083ZM17.7607 24.8096C17.7789 24.9103 17.7983 25.0109 17.8232 25.1104C17.7984 25.0109 17.7789 24.9103 17.7607 24.8096ZM18.2333 21.7627C18.184 21.8556 18.1376 21.9499 18.0946 22.0459C18.1376 21.9499 18.1841 21.8556 18.2333 21.7627ZM17.6864 23.8076C17.6839 23.8826 17.6835 23.9574 17.6845 24.0323C17.6835 23.9574 17.6838 23.8825 17.6864 23.8076ZM17.6864 23.8076C17.6873 23.7823 17.6871 23.7568 17.6884 23.7315C17.6871 23.7568 17.6873 23.7823 17.6864 23.8076ZM18.413 21.4502C18.3547 21.5423 18.2987 21.6357 18.247 21.7315C18.2987 21.6357 18.3548 21.5423 18.413 21.4502Z" fill="white"/>
</svg>
